<?xml version="1.0" encoding="utf-8"?>
<!-- Generator: Adobe Illustrator 25.4.1, SVG Export Plug-In . SVG Version: 6.00 Build 0)  -->
<svg version="1.1" id="Layer_1" xmlns="http://www.w3.org/2000/svg" xmlns:xlink="http://www.w3.org/1999/xlink" x="0px" y="0px"
	 viewBox="0 0 151.1 151.1" style="enable-background:new 0 0 151.1 151.1;" xml:space="preserve">
<style type="text/css">
	.st0{fill:#E84142;}
	.st1{fill:none;}
</style>
<g>
	<path class="st0" d="M75.5,0C33.8,0,0,33.8,0,75.5c0,41.7,33.8,75.5,75.5,75.5c41.7,0,75.5-33.8,75.5-75.5
		C151.1,33.8,117.3,0,75.5,0z M110.8,104.1l-8.6-4.9l2.5,9.2l-6.3,1.7l-4.2-15.5l-13.8-8l0,0l0,0l-0.1,0c-0.1,0.1-0.3,0.2-0.4,0.3
		c-0.1,0.1-0.1,0.1-0.2,0.2l0,0l-0.1,0.1c-0.1,0.1-0.3,0.2-0.4,0.3c0,0-0.1,0-0.1,0.1c-0.1,0-0.1,0.1-0.2,0.1s-0.1,0-0.1,0.1l-0.1,0
		c-0.1,0-0.2,0.1-0.3,0.1C78.2,87.9,78.1,88,78,88l0,0c-0.1,0-0.2,0.1-0.3,0.1l-0.1,0.1l-0.1,0v15.9l11.3,11.4l-4.6,4.6l-6.7-6.7
		v9.9h-6.6v-9.9l-6.7,6.7l-4.6-4.6l11.3-11.4V88.2l-0.1,0l-0.1-0.1c-0.1,0-0.2-0.1-0.3-0.1l0,0c-0.1-0.1-0.3-0.1-0.4-0.2
		c-0.1,0-0.2-0.1-0.3-0.1l-0.1,0c0,0-0.1,0-0.1-0.1s-0.1-0.1-0.2-0.1c0,0-0.1,0-0.1-0.1c-0.2-0.1-0.3-0.2-0.4-0.3
		c0,0-0.1-0.1-0.1-0.1l0,0c-0.1-0.1-0.2-0.1-0.2-0.2c-0.1-0.1-0.3-0.2-0.4-0.3l-0.1,0l0,0l0,0l-13.8,8L50,110l-6.3-1.7l2.5-9.2
		l-8.6,4.9l-3.3-5.7l8.6-4.9L33.6,91l1.7-6.3l15.5,4.2l13.8-8c0-0.1,0-0.2,0-0.2c0-0.1,0-0.3-0.1-0.4c0-0.1,0-0.1,0-0.2
		c0-0.1,0-0.2,0-0.4s0-0.3,0-0.4c0,0,0-0.1,0-0.1s0-0.1,0-0.1c0-0.1,0-0.3,0-0.4c0-0.1,0-0.2,0-0.3c0-0.1,0-0.1,0-0.2
		c0-0.1,0-0.3,0.1-0.4c0-0.1,0-0.2,0-0.2l-13.8-8l-15.5,4.2l-1.7-6.3l9.2-2.5l-8.6-4.9l3.3-5.7l8.6,4.9l-2.5-9.2l6.3-1.7l4.2,15.5
		l13.8,8l0,0l0,0l0,0c0.1-0.1,0.3-0.2,0.4-0.3c0.1-0.1,0.1-0.1,0.2-0.2l0,0l0.1-0.1c0.1-0.1,0.3-0.2,0.4-0.3c0,0,0.1,0,0.1-0.1
		c0,0,0.1,0,0.1-0.1s0.1-0.1,0.2-0.1c0.1-0.1,0.3-0.1,0.4-0.2c0.1,0,0.2-0.1,0.3-0.1s0.2-0.1,0.2-0.1c0.1,0,0.2-0.1,0.3-0.1h0V54.1
		L59.5,42.7l4.6-4.6l6.7,6.7v-9.9h6.6V70h0c0.1,0,0.2,0.1,0.3,0.1c0.1,0,0.1,0.1,0.2,0.1s0.2,0.1,0.3,0.1c0.1,0.1,0.3,0.1,0.4,0.2
		l0.2,0.1c0,0,0.1,0,0.1,0.1c0,0,0.1,0,0.1,0.1c0.2,0.1,0.3,0.2,0.5,0.3l0.1,0.1l0.1,0c0.1,0,0.1,0.1,0.2,0.1
		c0.1,0.1,0.3,0.2,0.4,0.3l0,0c0,0,0.1,0.1,0.1,0.1c0.1,0.1,0.1,0.1,0.2,0.2c0.1,0.1,0.2,0.2,0.3,0.3l0.1,0.1l0.1,0.1
		c0.1,0.1,0.1,0.1,0.2,0.2c0.1,0.1,0.2,0.2,0.3,0.3c0,0,0.1,0.1,0.1,0.1c0.1,0.1,0.2,0.2,0.2,0.3s0.1,0.2,0.2,0.3
		c0,0.1,0.1,0.1,0.1,0.2c0.1,0.1,0.1,0.2,0.2,0.3c0,0,0.1,0.1,0.1,0.1s0,0.1,0.1,0.1c0.1,0.1,0.1,0.2,0.2,0.3c0,0.1,0.1,0.2,0.1,0.2
		c0,0.1,0.1,0.2,0.1,0.3s0.1,0.2,0.1,0.3c0,0.1,0,0.1,0.1,0.2c0,0.1,0.1,0.3,0.1,0.4c0,0.1,0.1,0.2,0.1,0.3l0,0.1l0,0.1
		c0,0.2,0.1,0.3,0.1,0.5c0,0.1,0,0.2,0,0.2l0,0.1l0,0.1c0,0.2,0.1,0.3,0.1,0.5c0,0.1,0,0.1,0,0.2l0,0.1c0,0,0,0.1,0,0.1
		c0,0.2,0,0.4,0,0.5c0,0,0,0.1,0,0.1c0,0.1,0,0.1,0,0.2c0,0.1,0,0.1,0,0.2c0,0.2,0,0.3,0,0.5c0,0.1,0,0.2,0,0.3s0,0.2,0,0.3
		c0,0.1,0,0.2,0,0.4l30.4,17.5L110.8,104.1z M86.8,63.5V57c2.7,0,5.4,0.7,7.7,2c7.6,4.3,10.3,13.9,6.1,21.5l-5.7-3.2
		c0.8-1.4,1.2-2.9,1.2-4.5C96.1,67.7,91.9,63.5,86.8,63.5z M116.5,94.1l-5.6-3.4c3.1-5.1,4.7-10.9,4.7-16.8
		c0-18-14.5-32.5-32.5-32.5v-6.6c7.1,0,14.1,1.9,20.2,5.6C121.7,51.6,127.6,75.6,116.5,94.1z"/>
	<path class="st1" d="M103.2,40.4c-6.1-3.7-13.1-5.6-20.2-5.6v6.6c18,0,32.5,14.6,32.5,32.5c0,5.9-1.6,11.7-4.7,16.8l5.6,3.4
		C127.6,75.6,121.7,51.6,103.2,40.4z"/>
</g>
</svg>
