<?xml version="1.0" encoding="utf-8"?>
<!-- Generator: Adobe Illustrator 25.4.1, SVG Export Plug-In . SVG Version: 6.00 Build 0)  -->
<svg version="1.1" id="Layer_1" xmlns="http://www.w3.org/2000/svg" xmlns:xlink="http://www.w3.org/1999/xlink" x="0px" y="0px"
	 viewBox="0 0 572.87 793.57" style="enable-background:new 0 0 572.87 793.57;" xml:space="preserve">
<style type="text/css">
	.st0{fill:#FFFFFF;}
</style>
<g>
	<path class="st0" d="M536.76,466.22c-2.55,37.83-11.01,67.39-21.65,96.39c-3.82,10.41-8.56,20.48-12.99,30.65
		c-8.03,18.44-20.76,32.75-38.3,42.64c-27.18,15.32-48.75,36.16-65.61,62.58c-18.98,29.74-44.65,51.94-79.58,61.22
		c-8.79,2.34-18.22,2.23-27.31,3.55c-30.92,4.49-50.69,10.46-80.11-2.86c-26.47-11.98-51.2-27.68-73.19-46.68
		c-15.26-13.18-23.99-29.44-28.24-49.52c-5.35-25.22-12.2-50.38-21.27-74.49c-12.03-31.99-27.2-62.79-40.25-94.42
		c-4.59-11.12-9.28-23.95-11.03-35.87c-3.78-25.68,15.65-57.25,29.58-77.48c21.49-31.21,35.47-65.37,44.97-101.83
		c6.77-25.95,15.07-51.5,22.64-77.25c4.35-14.79,11.63-27.95,22.38-38.97c14.87-15.26,29.72-30.57,45.21-45.19
		c14.6-13.78,26.82-28.97,33.91-47.92c19.53-52.19,99.36-64.9,133.1-18.8c19.48,26.62,41.15,51.65,62.15,77.15
		c22.85,27.75,45.27,55.96,56,90.84c5.49,17.86,8.6,36.66,10.92,55.26c4.45,35.64,13.09,70.21,22.01,104.91
		C527.86,410.47,532.13,441.71,536.76,466.22z M147.89,433.77c-1.64,11.24,3,72.73,19.41,71.9c3.5-0.18,6.56-2.41,9.06-4.88
		c11.49-11.33,15.26-28.63,14.12-44.73c-1.14-16.09-6.56-31.52-11.06-47.02c-1.31-4.49-2.14-10.28,1.65-13.02
		c4.46-3.23,10.47,1,13.94,5.27c28.02,34.41,24.67,79.53,33.86,120.36c3.72,16.54,20.25,26.09,31.5,18.41
		c12.21-8.33,20.09-20.06,22.01-34.98c1.18-9.17,0.99-18.52,2.12-27.7c1.16-9.41,0.78-20.15,5.33-27.77
		c8.77-14.69,20.2-27.88,31.33-41.01c2.25-2.66,9.29-4.4,11.89-2.84c3.42,2.05,5.54,7.59,6.48,12c0.69,3.26-1.45,7.1-2.26,10.7
		c-3.43,15.33-7.44,30.57-10.06,46.04c-2.25,13.26,0.67,26.37,9.07,36.83c8.44,10.51,18.37,19.91,28.28,29.1
		c6.45,5.98,13.74,4.87,19.79-1.4c8.91-9.25,15.14-20.19,13.31-33.25c-1.61-11.48-5.13-22.76-8.48-33.92
		c-3.01-10.02-7.71-19.56-10.31-29.66c-4.27-16.57,0.2-32.6,5.94-48.02c10.35-27.79,10-54.19-6.99-79.6
		c-4.57-6.84-8.49-14.62-10.39-22.52c-1.01-4.18,1.74-10.96,5.12-13.89c2.08-1.81,9.82-0.03,12.77,2.63
		c6.35,5.72,11.18,13.11,16.74,19.71c22.08,26.21,29.92,54.74,18.68,88.62c-8.86,26.72,6.66,62.74,29.82,75.87
		c16.36,9.28,27.37,5.59,34.77-11.67c12.25-28.58,2.74-71.72-19.19-93.7c-14.09-14.12-28.84-28.48-39.1-45.29
		c-13.07-21.4-22.09-45.29-32.4-68.32c-2.33-5.2-4.43-12.41,2.66-15.49c7.07-3.07,10.13,3.92,12.93,8.66
		c4.86,8.22,8.55,17.15,13.57,25.26c5.32,8.59,10.83,17.33,17.71,24.63c7.39,7.84,17,4.13,18.29-6.76
		c0.63-5.29-0.61-11.04-2.11-16.27c-1.95-6.79-5.19-13.2-7.53-19.9c-4.15-11.87-12.41-19.27-23.7-24.49
		c-7.71-3.57-15.04-8.36-21.7-13.67c-6.73-5.36-12.19-12.27-18.6-18.07c-8.48-7.66-15.57-6.55-20.74,3.8
		c-3.84,7.68-6.27,16.07-9.3,24.15c-6.76,18.03-14.04,35.95-29.1,48.8c-21.18,18.07-42.35,35.99-57.94,59.53
		c-1.73,2.61-7.76,5.22-9.78,4.13c-3.09-1.67-5-6.38-6.28-10.19c-0.8-2.37-0.06-5.65,0.92-8.16c7.07-18.03,14.55-35.9,21.55-53.97
		c5.88-15.18,13.29-30.16,16.22-45.94c2.26-12.19,0.45-25.97-2.87-38.14c-3.98-14.59-16.72-16.7-28.07-6.66
		c-8.91,7.88-12.87,18.1-13.37,29.56c-1.13,25.59-9.85,48.91-21.21,71.34c-3.57,7.05-8.51,13.72-14.09,19.31
		c-2.76,2.77-10.4,4.99-12.27,3.36c-3.19-2.77-4.33-8.69-4.84-13.44c-0.32-3.01,2.39-6.23,3.22-9.5
		c3.02-11.92,6.13-23.84,8.57-35.88c1.47-7.27-2.65-12.37-8.7-15.96c-6.14-3.65-11.43-1.04-16.09,2.88
		c-3.28,2.75-6.52,5.88-8.76,9.47c-12.92,20.67-26.23,41.14-38.07,62.43c-7.92,14.24-15.26,29.08-19.79,44.79
		c-2.69,9.33-4.79,19.55-4.06,29.31c0.35,4.65,1,10.68,4.23,14.37c9,10.3,13.88-4.18,16.19-11.63c2-6.46,3.24-13.24,6.43-19.21
		c1.8-3.37,4.32-6.5,7.76-8.16c3.44-1.65,7.92-1.51,10.74,1.06c3.75,3.42,3.32,9.35,2.59,14.37
		C155.49,381.78,151.69,407.77,147.89,433.77z"/>
</g>
</svg>
