<?xml version="1.0" encoding="utf-8"?>
<!-- Generator: Adobe Illustrator 25.4.1, SVG Export Plug-In . SVG Version: 6.00 Build 0)  -->
<svg version="1.1" id="Layer_1" xmlns="http://www.w3.org/2000/svg" xmlns:xlink="http://www.w3.org/1999/xlink" x="0px" y="0px"
	 viewBox="0 0 197 197" style="enable-background:new 0 0 197 197;" xml:space="preserve">
<style type="text/css">
	.st0{fill:#FFFFFF;}
</style>
<g>
	<path class="st0" d="M70.81,132.69c1.23-26.92,2.41-52.65,3.56-78.38c0.16-3.66,1.7-6.78,5.34-7.1c3.95-0.35,6.98,3.4,6.78,7.69
		c-0.65,13.7-1.66,27.39-2.19,41.09c-0.71,18.34-0.97,36.69-1.41,55.04c-0.05,1.89-0.17,3.99-1.52,5.32
		c-2.13,2.11-6.09,2.6-8.09,0.24c-2.11-2.5-2.64-5.99-2.6-9.26C70.75,142.43,70.81,137.58,70.81,132.69z"/>
	<path class="st0" d="M94.39,162.83c-0.04-1.92,0.39-3.85,0.55-5.76c0.23-2.72,0.27-5.47,0.43-8.2c0.34-5.81,0.64-11.62,0.98-17.44
		c0.63-10.84,1.28-21.68,1.99-32.51c0.18-2.8,0.57-5.65,0.57-8.45c0.17-2.42,1.98-5.5,3.98-6.73c1.27-0.78,4.45,1.03,6.47,2.2
		c0.91,0.53,1.57,2.35,1.51,3.54c-1.38,25.79-2.83,51.57-4.45,77.35c-0.12,1.95-0.6,3.96-2.22,5.21c-1.63,1.26-4.51,1.94-6.08,0.25
		c-0.66-0.71-0.97-1.67-1.35-2.57c-0.69-1.6-1.67-3.09-2.1-4.78C94.48,164.24,94.4,163.54,94.39,162.83z"/>
</g>
</svg>
