<?xml version="1.0" encoding="utf-8"?>
<!-- Generator: Adobe Illustrator 25.4.1, SVG Export Plug-In . SVG Version: 6.00 Build 0)  -->
<svg version="1.1" id="Layer_1" xmlns="http://www.w3.org/2000/svg" xmlns:xlink="http://www.w3.org/1999/xlink" x="0px" y="0px"
	 viewBox="0 0 197 197" style="enable-background:new 0 0 197 197;" xml:space="preserve">
<style type="text/css">
	.st0{fill:#FFFFFF;}
</style>
<g>
	<path class="st0" d="M96.56,94.15c-5.29-0.05-10.67-0.48-15.95,0.35c-2.81,0.44-5.56,1.21-8.36,1.77
		c-3.34,0.67-6.73,1.05-10.11,1.4c-5.12,0.54-10.76,0.9-14.94-2.1c-2.35-1.69-3.9-5.32-1.9-7.42c1.07-1.12,2.73-1.35,4.27-1.53
		c22.02-2.49,44.04-4.98,66.05-7.47c2.62-0.3,5.33-0.58,7.85,0.21c2.21,0.69,4.07,2.16,5.88,3.6c0.83,0.66,1.75,1.62,1.37,2.61
		c-0.17,0.45-0.58,0.75-0.87,1.13c-1.41,1.8-0.03,4.38,1.33,6.22c7.46,10.08,14.68,20.33,21.64,30.76c1.21,1.8,2.33,4.43,0.74,5.91
		c-0.85,0.79-2.14,0.83-3.3,0.82c-2.92-0.02-6.06-0.11-8.4-1.85c-2.55-1.89-3.51-5.26-5.64-7.63c-0.37-0.41-0.81-0.81-1.36-0.91
		c-0.9-0.16-1.71,0.54-2.36,1.18c-3.57,3.52-7.13,7.04-10.7,10.56c-2.29,2.26-4.67,4.58-7.66,5.77c-2.99,1.19-6.79,0.97-8.98-1.38
		c-0.86-0.92-1.43-2.27-0.99-3.45c0.22-0.6,0.67-1.08,1.11-1.55c6.57-6.97,13.26-13.83,20.06-20.56c0.72-0.71,1.49-1.53,1.52-2.54
		c0.03-0.89-0.54-1.68-1.07-2.4c-1.54-2.05-3.08-4.09-4.62-6.14c-0.48-0.64-1-1.3-1.75-1.57c-1.32-0.46-2.67,0.5-3.74,1.4
		c-14.24,12.05-28.39,24.22-42.43,36.52c-2.74,2.4-5.73,4.92-9.36,5.31s-7.79-2.55-7.17-6.14c0.35-2.02,1.99-3.52,3.54-4.85
		c8.23-7.08,16.47-14.17,24.7-21.25c5.69-4.89,11.8-9.55,16.9-15.04L96.56,94.15z"/>
</g>
</svg>
