<?xml version="1.0" encoding="utf-8"?>
<!-- Generator: Adobe Illustrator 25.4.1, SVG Export Plug-In . SVG Version: 6.00 Build 0)  -->
<svg version="1.1" id="Layer_1" xmlns="http://www.w3.org/2000/svg" xmlns:xlink="http://www.w3.org/1999/xlink" x="0px" y="0px"
	 viewBox="0 0 197 197" style="enable-background:new 0 0 197 197;" xml:space="preserve">
<style type="text/css">
	.st0{fill:#FFFFFF;}
</style>
<g>
	<path class="st0" d="M100.89,82.33c-0.06-2.09,1.89-23.1,3.13-27.65c0.76-2.78,1.05-6.12,3.79-7.13c0.97-0.36,2.03-0.35,3.05-0.5
		c5.26-0.79,4.31,9.73,4.16,14.57c-0.01,0.41-1.16,12.71-1.95,18.52c-1.55,11.31-0.62,22.84-2.77,34.11
		c-2.51,13.15,3.06,24.04,7.35,35.48c0.83,2.21,1.97,4.56,1.91,6.98c-0.02,0.89,0,2.35-1.33,2.98c-1.53,0.73-3.46,1.31-5.18,1.19
		c-1.18-0.08-2.75-0.96-3.36-1.97c-3-4.94-6.26-9.83-8.46-15.13C95.93,131,91.16,118,86.17,105.1c-0.12-0.31-0.3-0.59-0.41-0.9
		c-0.9-2.75-2.37-5.36-2.54-8.32c-0.05-0.87,0.16-2.26,0.43-3.09c0.37-1.18,0.98-2.84,1.9-3.13c1.57-0.51,8.6,13.29,12.48,10.32
		C99.95,99.4,100.79,83.2,100.89,82.33"/>
	<path class="st0" d="M50.42,73.95c0.05-0.45,0.29-0.85,0.53-1.23c0.59-0.93,1.04-1.97,1.87-2.7c1.45-1.28,5.3-0.47,6.82,0.39
		c2.14,1.2,4.45,3.17,5.33,5.35c4.92,12.25,9.58,24.62,14.02,37.05c4.35,12.17,8.23,24.51,12.3,36.78c1.01,3.05,1.91,6.16,2.5,9.32
		c0.14,0.77,0.2,1.55-0.02,2.26c-0.21,0.66-0.72,1.09-1.39,1.23c-0.35,0.07-0.71,0.08-1.07,0.06c-0.35-0.02-0.7-0.06-1.05-0.11
		c-0.34-0.04-0.68-0.17-1.02-0.11c-0.33,0.06-0.57,0.29-0.8,0.51c-0.17,0.16-0.52,0.9-0.98,0.92c-0.49,0.02-0.91-0.33-1.27-0.5
		c-0.18-0.09-0.36-0.18-0.54-0.28c-0.17-0.09-0.37-0.18-0.53-0.3c-0.62-0.37-1.21-0.79-1.77-1.26c-0.54-0.45-1.04-0.95-1.51-1.48
		c-0.46-0.53-0.89-1.09-1.28-1.67c-0.39-0.59-0.75-1.2-1.08-1.83c-0.33-0.64-0.63-1.3-0.91-1.97c-0.28-0.68-0.53-1.37-0.76-2.07
		c-0.23-0.71-0.45-1.43-0.65-2.15c-0.13-0.48-0.25-0.96-0.38-1.44c-0.42-1.69-0.92-3.35-1.52-4.98
		c-8.42-22.88-15.42-45.86-24.58-68.44C50.59,75.07,50.38,74.33,50.42,73.95z"/>
</g>
</svg>
