<?xml version="1.0" encoding="utf-8"?>
<!-- Generator: Adobe Illustrator 25.4.1, SVG Export Plug-In . SVG Version: 6.00 Build 0)  -->
<svg version="1.1" id="Layer_1" xmlns="http://www.w3.org/2000/svg" xmlns:xlink="http://www.w3.org/1999/xlink" x="0px" y="0px"
	 viewBox="0 0 197 197" style="enable-background:new 0 0 197 197;" xml:space="preserve">
<style type="text/css">
	.st0{fill:#FFFFFF;}
</style>
<path class="st0" d="M38.98,127.75c-0.08-0.23,0.05-0.48,0.18-0.7c1.16-1.92,2.27-3.68,4.69-4.02c2.59-0.37,5.48,0.2,7.99,0.82
	c4.91,1.22,9.48,3.5,14.39,4.72c8.67,2.17,16.92,4.6,25.5,9.31c0-5.78-0.1-10.8,0.02-15.82c0.45-18.7,0.96-37.4,1.49-56.09
	c0.1-3.47,1.43-6.6,5.19-6.87c5.03-0.37,7.12,2.08,6.97,7.41c-0.2,7.12-1.07,14.37-1.05,21.45c0.02,7.13,3.52,13.84,7.06,19.83
	c2.55,4.31,5.5,8.42,7.5,13.04c0.79,1.81,2.37,4.39,2.09,6.44c-0.38,2.73-3.72,3.42-6.05,3.59c-0.42,0.03-0.87,0.03-1.24-0.17
	c-0.29-0.16-0.51-0.44-0.71-0.7c-1.43-1.86-2.86-3.7-4.3-5.54c-0.92-1.17-4.91-4.87-4.91-6.27c0,8.47,0.37,16.95,0.24,25.42
	c-0.1,6.14-5.31,9.74-10.85,7.15c-4.74-2.22-8.82-5.97-13.65-7.85c-9.23-3.6-18.83-6.23-28.18-9.53c-4.08-1.44-7.94-3.36-11.86-5.18
	C39.28,128.08,39.06,127.97,38.98,127.75z"/>
</svg>
