<?xml version="1.0" encoding="utf-8"?>
<!-- Generator: Adobe Illustrator 25.4.1, SVG Export Plug-In . SVG Version: 6.00 Build 0)  -->
<svg version="1.1" id="Layer_1" xmlns="http://www.w3.org/2000/svg" xmlns:xlink="http://www.w3.org/1999/xlink" x="0px" y="0px"
	 viewBox="0 0 197 197" style="enable-background:new 0 0 197 197;" xml:space="preserve">
<style type="text/css">
	.st0{fill:#FFFFFF;}
</style>
<g>
	<path class="st0" d="M75.9,80.56c-2.62-5.82-7.16-12.52-5.03-19.2c0.18-0.55,0.44-1.12,0.94-1.39c0.36-0.19,0.78-0.2,1.18-0.19
		c5.57,0.11,8.98,1.31,11.14,6.46c3.4,8.11,7.49,16.14,10.16,24.48c2.42,7.59,5.43,15.39,11.69,20.68
		c5.46,4.6,12.63,6.62,18.6,10.54c4.26,2.8,11.44,7.87,10.48,10.97c-2.23,3.16-10.88,0.25-15.83-1.5c-5.1-1.81-9.83-4.49-14.53-7.16
		c-0.01,0.09-0.01,0.19-0.02,0.28c-0.66,8.89-1.33,17.78-1.99,26.67c-0.38,5.11,1.09,13.96-6.23,13.76
		c-4.82-0.13-8.83-2.61-8.53-7.68c0.63-10.73,1.3-21.46,2.14-32.16c0.2-2.55-0.13-5.36-1.9-7.21c-1.61-1.69-4.04-2.23-6.31-2.8
		c-7.59-1.89-14.5-4.07-21.21-8.1c-0.22-0.13-0.85-0.51-0.93-1.36c-0.14-1.36,0.98-2.73,1.15-2.98c1.16-1.73,4.74-2.86,9-2.95
		c8.5-0.17,12.83,4.52,14.37,3.13c0.95-0.86-3.54-11.12-4.13-12.62L75.9,80.56z"/>
</g>
</svg>
