<?xml version="1.0" encoding="utf-8"?>
<!-- Generator: Adobe Illustrator 25.4.1, SVG Export Plug-In . SVG Version: 6.00 Build 0)  -->
<svg version="1.1" id="Layer_1" xmlns="http://www.w3.org/2000/svg" xmlns:xlink="http://www.w3.org/1999/xlink" x="0px" y="0px"
	 viewBox="0 0 197 197" style="enable-background:new 0 0 197 197;" xml:space="preserve">
<style type="text/css">
	.st0{fill:#FFFFFF;}
</style>
<g>
	<path class="st0" d="M80.68,143.56c0.89,0.2,57.91-54.05,56.03-56.6c-2.04-2.76-27.23-10.7-27.63-11.45
		c-0.75-1.44-0.27-3.56,1.34-4.43c2.73-1.49,42.07,9.26,43.58,12.24c1.74,3.44-13.55,16.34-20.75,23.55
		c-15.3,15.34-31.07,30.21-46.6,45.32c-1.08,1.05-1.95,2.42-2.56,3.8c-0.9,2.04-2.73,2.17-4.11,3.39c-0.67,0.6-0.9,2.12-1.78,2.31
		c-3.67,0.79-7.45-3.02-8.81-5.47c-1.45-2.61,0.7-5.55-0.09-7.64c-3.23-8.6-10.36-32.79-15.53-49.19
		c-3.19-10.15-6.47-20.27-9.27-30.53c-0.82-3.01-1.96-8.43-0.13-9.49c3-1.74,10.42,3.69,12.21,9.49
		C64.14,93.37,79.66,143.44,80.68,143.56"/>
</g>
</svg>
