<?xml version="1.0" encoding="utf-8"?>
<!-- Generator: Adobe Illustrator 25.4.1, SVG Export Plug-In . SVG Version: 6.00 Build 0)  -->
<svg version="1.1" id="Layer_1" xmlns="http://www.w3.org/2000/svg" xmlns:xlink="http://www.w3.org/1999/xlink" x="0px" y="0px"
	 viewBox="0 0 197 197" style="enable-background:new 0 0 197 197;" xml:space="preserve">
<style type="text/css">
	.st0{fill:#FFFFFF;}
</style>
<g>
	<path class="st0" d="M65.22,105.82c-0.17-2.17,1.44-4.08,2.45-4.48c3.1-1.24,15.38,6.42,21.23,12.56
		c8.21,8.62,24.19,26.28,25.81,25.7c0.88-0.31-1.07-12.19-1.29-18.29c-0.17-4.57-1.16-19.05-1.61-21.75
		c-0.73-4.39-1.25-8.82-1.8-13.25c-0.6-4.83-2.23-6.02-6.43-4.56c-5.53,1.92-13.97,1.23-14.49-3.53c-0.39-3.58,8.27-6.58,13.48-8.04
		c4.04-1.13,6.12-2.58,5.6-7.87c-0.58-5.95-3.27-15.04,1.96-18.17c5.87-3.51,9.87,17.76,12.07,18.87c1.73,0.87,7.02-3.45,10.2-4.72
		c5.92-2.36,7.83-6.01,6.25-12.55c-1.13-4.68-0.51-9.91,0.03-14.81c0.24-2.2,1.63-5.67,3.91-6.22c4.84-1.17,10.16,3.17,10.53,11.79
		c0.77,17.97,1.88,35.93,2.74,53.9c0.34,7.1,0.52,14.22,0.54,21.32c0.01,2.95-2.44,6.88-6.84,7.07c-5.21,0.23-7.63-11.65-7.84-19.09
		c-0.28-9.56,0.65-26.83-1.44-28.55c-1.89-1.55-16.75,2.9-16.05,11.34c2.04,24.59,4.24,49.16,6.47,73.73
		c0.5,5.56-4.48,9.84-9.4,7.37c-3.32-1.67-6.43-4.14-9-6.86c-14.7-15.49-29.2-31.17-43.77-46.78
		C67.19,108.53,65.35,107.56,65.22,105.82z"/>
</g>
</svg>
