<?xml version="1.0" encoding="utf-8"?>
<!-- Generator: Adobe Illustrator 25.4.1, SVG Export Plug-In . SVG Version: 6.00 Build 0)  -->
<svg version="1.1" id="Layer_1" xmlns="http://www.w3.org/2000/svg" xmlns:xlink="http://www.w3.org/1999/xlink" x="0px" y="0px"
	 viewBox="0 0 197 197" style="enable-background:new 0 0 197 197;" xml:space="preserve">
<style type="text/css">
	.st0{fill:#FFFFFF;}
</style>
<g>
	<path class="st0" d="M155.66,98.46c0,0.11-0.01,0.24-0.05,0.37c-0.36,1.35-1.71,2.37-2.7,3.26c-1.26,1.13-2.39,2.35-3.52,3.6
		c-2.69,2.97-5.3,6.01-7.97,8.99c-5.19,5.77-10.41,11.52-15.7,17.2c-1.33,1.43-4.47,2.47-6.27,1.95
		c-8.84-2.55-16.83-6.79-22.86-14.04c-3.28-3.95-2.84-7.88-0.22-12.11c5.74-9.28,11.23-18.71,16.85-28.06
		c1.68-2.79,3.64-5.43,5.13-8.32c2.15-4.17,4.61-1.6,6.82-0.42c2.46,1.31,5.97,2.57,3.98,6.43c-4.16,8.07-8.56,16.01-12.97,23.95
		c-2.01,3.61-4.54,6.94-6.3,10.66c-0.59,1.25-0.11,3.93,0.9,4.86c5.63,5.18,8.16,4.92,13.25-0.87c6-6.82,12.15-13.53,17.82-20.62
		c1.29-1.61,2.94-2.44,4.99-1.95c1.78,0.42,4.15,1.24,5.65,2.26c0.72,0.49,1.31,1.14,2.04,1.62
		C155.05,97.55,155.64,97.82,155.66,98.46z"/>
	<path class="st0" d="M106.09,61.8c2.7-0.16,5.3,1.72,7.46,3.1c4.34,2.77-3.54,10.32-5.48,13.04
		c-12.73,17.81-25.63,35.5-38.14,53.47c-2.07,2.98-7.41,6.94-11.13,4.25c-1.1-0.8-1.74-2.16-2.66-3.15
		c-0.92-0.98-1.78-1.82-1.7-3.27c0.09-1.53,1.73-3.27,2.56-4.48c2.37-3.46,5.58-6.26,7.95-9.73c4.32-6.32,8.69-12.6,13.17-18.81
		c4.43-6.14,8.97-12.2,13.67-18.14c2.35-2.97,4.63-5.99,6.99-8.95c1.75-2.19,3.42-6.07,6.23-7.1
		C105.35,61.89,105.71,61.82,106.09,61.8z"/>
</g>
</svg>
