<?xml version="1.0" encoding="utf-8"?>
<!-- Generator: Adobe Illustrator 25.4.1, SVG Export Plug-In . SVG Version: 6.00 Build 0)  -->
<svg version="1.1" id="Layer_1" xmlns="http://www.w3.org/2000/svg" xmlns:xlink="http://www.w3.org/1999/xlink" x="0px" y="0px"
	 viewBox="0 0 197 197" style="enable-background:new 0 0 197 197;" xml:space="preserve">
<style type="text/css">
	.st0{fill:#FFFFFF;}
</style>
<g>
	<path class="st0" d="M93.9,63.77c6.04,1.67,8.22,8.78,12.18,15.19c6.1,9.85,11.99,19.84,17.64,29.96c0.91,1.63,4.51,8.93,2.3,10.29
		c-5.38,3.31-10.35-2.91-12.58-6.84c-6.21-10.94-12.61-21.78-19.19-32.5c-3.46-5.64-4.25-5.79-9.5-1.5
		c-8.33,6.81-16.36,13.98-24.53,20.98c-4.14,3.55-8.39,6.99-12.41,10.67c-0.88,0.81-1.56,2.52-1.34,3.62
		c0.15,0.76,1.96,1.49,3.12,1.69c9.52,1.65,19.16,2.72,28.56,4.86c14.22,3.25,28.72,7.85,43.14,11.26
		c14.56,3.45,29,8.42,43.75,10.95c3.14,0.54,6.42,1.43,8.99,3.4c1.2,0.92,3.72,2.98,2.93,4.8c-1.09,2.47-6.58,1.93-8.72,1.7
		c-3.54-0.37-6.9-1.86-10.36-2.64c-25.47-5.76-50.79-12.21-76.24-18.07c-15.62-3.59-31.38-6.55-47.07-9.8
		c-5.66-1.17-10.51-5.22-5.03-10.05c8.83-7.77,17.83-15.36,26.77-23c7.93-6.78,15.72-13.73,23.89-20.21
		c1.81-1.43,3.56-3.62,5.84-4.3C89.28,63.26,91.82,63.19,93.9,63.77z"/>
</g>
</svg>
