<?xml version="1.0" encoding="utf-8"?>
<!-- Generator: Adobe Illustrator 25.4.1, SVG Export Plug-In . SVG Version: 6.00 Build 0)  -->
<svg version="1.1" id="Layer_1" xmlns="http://www.w3.org/2000/svg" xmlns:xlink="http://www.w3.org/1999/xlink" x="0px" y="0px"
	 viewBox="0 0 197 197" style="enable-background:new 0 0 197 197;" xml:space="preserve">
<style type="text/css">
	.st0{fill:#FFFFFF;}
</style>
<g>
	<path class="st0" d="M74.03,54.61c2.05-1.3,5.04-0.02,7.31,1.36c3.61,2.17,3.49,6.46,3.94,10.22c3.14,25.89,6,51.82,8.83,77.75
		c0.32,2.95,0.54,6.15-2.7,7.5c-4.38,1.82-9.26-1.73-10.38-5.74c-2.42-8.68-2.64-19.96-3.71-29.61c-1.06-9.54-2.34-19.06-3.49-28.59
		c-1.02-8.48-2.25-16.94-2.81-25.45C70.87,59.75,71.98,55.92,74.03,54.61z"/>
	<path class="st0" d="M151.49,85.85c-0.08,0.54-0.38,1.1-0.97,1.68c-4.33,4.31-10.56,5.68-16.41,6.5c-2.97,0.42-5.97,0.68-8.93,1.13
		c-3.48,0.52-6.75,0.99-10.21,1.64c-4.12,0.77-8.68,1.11-12.68-0.15c-1.47-0.46-3.01-1.02-3.97-2.23c-1.08-1.35-1.16-3.4-0.19-4.83
		c1.03-1.52,2.92-2.17,4.69-2.67c7.31-2.09,14.8-3.49,22.35-4.41c4.2-0.51,8.41-0.87,12.63-1.15c4.16-0.27,8.2-1.11,11.85,1.5
		C150.89,83.75,151.66,84.75,151.49,85.85z"/>
	<path class="st0" d="M156.23,115.48c-0.41,0.58-1.18,0.94-1.88,1.18c-2.68,0.92-5.5,1.36-8.31,1.79
		c-10.91,1.64-22.31,4.27-33.37,3.06c-1.77-0.19-3.41-1.66-4.69-2.79c-1.64-1.45-0.19-3.6,1.39-4.63c1.24-0.81,2.71-1.16,4.16-1.46
		c7.65-1.57,15.63-2.29,23.39-3.05c6.2-0.61,12.56-1.03,17.95,2.65c0.92,0.63,1.87,1.59,1.63,2.67
		C156.45,115.11,156.36,115.31,156.23,115.48z"/>
</g>
</svg>
