<?xml version="1.0" encoding="utf-8"?>
<!-- Generator: Adobe Illustrator 25.4.1, SVG Export Plug-In . SVG Version: 6.00 Build 0)  -->
<svg version="1.1" id="Layer_1" xmlns="http://www.w3.org/2000/svg" xmlns:xlink="http://www.w3.org/1999/xlink" x="0px" y="0px"
	 viewBox="0 0 197 197" style="enable-background:new 0 0 197 197;" xml:space="preserve">
<style type="text/css">
	.st0{fill:#FFFFFF;}
</style>
<g>
	<path class="st0" d="M47.39,147.57c-0.11-0.95,0.79-1.77,1.6-2.35c6.25-4.52,12.5-9.03,18.74-13.55c5.85-4.23,11.66-9.42,18.1-12.7
		c6.51-3.32,7.8-8.66,7.9-15.05c0.06-3.78,0.43-7.56,0.67-11.53c0.05-0.76-11.49-0.54-12.55-0.64c-2.21-0.21-4.37-0.81-6.25-2.02
		c-1.85-1.19-4.48-2.82-1.87-4.71c1.45-1.05,3.41-1.75,5.16-2.1c4.19-0.85,8.53-1.13,12.82-1.24c3.01-0.08,3.94-1.4,4.18-4.16
		c0.68-8.08,1.61-16.14,2.34-24.21c0.42-4.67,2.99-6.89,7.51-6.43c4.64,0.48,4.77,4.18,4.46,7.62c-1.37,15.33-2.88,30.64-4.34,45.96
		c-0.13,1.36-0.49,3.07-0.26,4.39c2.03-0.88,3.82-2.79,5.58-4.11c2.14-1.61,4.29-3.22,6.43-4.84c4.1-3.08,8.2-6.17,12.3-9.25
		c1.85-1.39,3.69-3.29,6.05-3.78c2.51-0.52,5.25,1.15,7.07,2.73c3.32,2.88-2.62,6.14-4.61,7.69c-10.65,8.27-21.46,16.33-32.07,24.65
		c-1.35,1.06-2.33,3.13-2.66,4.89c-1.72,9.26-3.46,18.54-4.59,27.89c-0.55,4.55-4.27,6.15-6.76,6.02c-3.01-0.16-5.85-3.56-5.43-7.31
		c0.61-5.4,1.95-10.71,2.9-16.07c0.34-1.9,1.06-5.7-1.78-3.71c-3.87,2.71-7.18,6.12-10.81,9.13c-4.17,3.44-8.34,6.89-12.51,10.33
		c-1.53,1.26-3.14,2.57-5.09,2.97c-1.71,0.35-3.48-0.05-5.14-0.57c-1.91-0.6-3.77-1.36-5.54-2.28c-0.65-0.34-1.36-0.78-1.53-1.49
		C47.41,147.68,47.4,147.63,47.39,147.57z"/>
</g>
</svg>
