<?xml version="1.0" encoding="utf-8"?>
<!-- Generator: Adobe Illustrator 25.4.1, SVG Export Plug-In . SVG Version: 6.00 Build 0)  -->
<svg version="1.1" id="Layer_1" xmlns="http://www.w3.org/2000/svg" xmlns:xlink="http://www.w3.org/1999/xlink" x="0px" y="0px"
	 viewBox="0 0 197 197" style="enable-background:new 0 0 197 197;" xml:space="preserve">
<style type="text/css">
	.st0{fill:#FFFFFF;}
</style>
<g>
	<path class="st0" d="M105.71,105.9c-2.72,0.84-1.83,8.21-1.77,10.2c0.25,7.38-0.08,14.76-0.57,22.13
		c-0.24,3.69-0.52,7.38-0.79,11.06c-0.19,2.58-0.38,5.17-0.54,7.75c-0.14,2.3,0.01,4.83-1.21,6.89c-1.58,2.67-6.29,4.17-8.4,1.24
		c-2.16-2.99-2.29-7.98-2.11-11.52c0.25-4.83,0.48-9.66,0.72-14.5c-8.69,0.84-17.05,1.58-25.38,2.48
		c-4.19,0.45-8.42-0.17-12.24-1.96c-1.37-0.64-3.92-1.48-4.19-3.29c-0.29-1.98,2.01-3.38,3.55-3.93c3.92-1.39,8.13-0.14,12.1-0.94
		c7.11-1.43,14.45-1.73,21.71-2.37c3.64-0.32,5.19-2.11,5.38-5.71c0.32-6,1.18-11.96,1.57-17.95c0.34-5.22,1.3-12.03-2.36-16.31
		c-4.17-4.88-8.43-9.68-12.7-14.48c-2.13-2.4-4.27-4.79-6.4-7.19c-4.01-4.52-0.5-9.63,5.18-7.48c2.52,0.96,4.42,3.04,6.23,5.05
		c4.09,4.56,8.17,9.12,12.26,13.67c0.42-7.86,0.9-15.72,1.27-23.58c0.32-6.69,3.73-9.67,8.81-7.1c1.53,0.77,3.19,3.29,3.11,4.93
		c-0.53,11.74-1.58,23.46-2.24,35.19c-0.09,1.55,0.71,3.5,1.75,4.69c4.09,4.66,8.29,9.21,12.48,13.78c3.48,3.8,7.79,7.59,9.44,12.62
		c0.71,2.16,1.08,3.86-1.34,4.42c-1.23,0.29-3.69,0.29-4.76-0.53c-4.44-3.39-8.32-7.52-12.35-11.44c-1.64-1.6-2.83-3.62-4.53-5.16
		C106.69,105.96,106.14,105.77,105.71,105.9z"/>
</g>
</svg>
