<?xml version="1.0" encoding="utf-8"?>
<!-- Generator: Adobe Illustrator 25.4.1, SVG Export Plug-In . SVG Version: 6.00 Build 0)  -->
<svg version="1.1" id="Layer_1" xmlns="http://www.w3.org/2000/svg" xmlns:xlink="http://www.w3.org/1999/xlink" x="0px" y="0px"
	 viewBox="0 0 197 197" style="enable-background:new 0 0 197 197;" xml:space="preserve">
<style type="text/css">
	.st0{fill:#FFFFFF;}
</style>
<g>
	<path class="st0" d="M97.62,151.34c-21.87,0.85-39.49,1.7-57.12,2.09c-3.39,0.07-7.01-1.23-10.17-2.68
		c-2.94-1.35-2.12-4.24-0.55-6.27c2.14-2.78,5.1-4.97,7.05-7.86c16.5-24.39,32.85-48.88,49.21-73.37c2.72-4.07,2.9-11.02,9.81-9.65
		c2.74,0.54,4.16,2.37,5.05,4.88c3.31,9.33,9.73,17.74,14.87,26.15c5.66,9.26,11.33,18.52,16.99,27.78
		c5.67,9.26,11.33,18.52,17,27.78c1.32,2.16,2.3,4.57,2.62,7.1c0.3,2.4-2.8,3.14-4.6,3.23c-2.96,0.15-5.59-1.72-8.57-1.47
		c-3.01,0.24-5.88,1.4-8.92,1.35C117.99,150.21,105.68,151.05,97.62,151.34z M95.02,71.72c-1.72,1.17-3.25,4.23-4.46,5.99
		c-1.5,2.2-3,4.4-4.51,6.6c-2.99,4.38-5.98,8.77-8.97,13.15c-5.98,8.77-11.96,17.53-17.94,26.3c-2.23,3.27-4.46,6.54-6.7,9.81
		c-1.08,1.59-2.27,3.09-3.39,4.65c-0.96,1.33-2.94,3.51-3.02,5.14c2.03,0.51,4.33-0.12,6.39-0.21c2.57-0.11,5.15-0.22,7.72-0.31
		c4.93-0.19,9.87-0.36,14.8-0.54c13.3-0.48,26.6-0.94,39.91-1.32c3.45-0.1,6.9-0.2,10.35-0.27c1.72-0.04,3.45-0.07,5.17-0.1
		c1.66-0.03,3.3,0.58,3.78-1.14c1.34-4.85-3.43-8.8-5.49-12.56c-2.86-5.22-6.07-10.25-9.17-15.34c-4.06-6.66-8.13-13.32-12.2-19.98
		c-2.03-3.33-4.07-6.66-6.11-9.99C99.23,78.41,97.7,74.39,95.02,71.72z"/>
</g>
</svg>
