<?xml version="1.0" encoding="utf-8"?>
<!-- Generator: Adobe Illustrator 25.4.1, SVG Export Plug-In . SVG Version: 6.00 Build 0)  -->
<svg version="1.1" id="Layer_1" xmlns="http://www.w3.org/2000/svg" xmlns:xlink="http://www.w3.org/1999/xlink" x="0px" y="0px"
	 viewBox="0 0 197 197" style="enable-background:new 0 0 197 197;" xml:space="preserve">
<style type="text/css">
	.st0{fill:#FFFFFF;}
</style>
<g>
	<path class="st0" d="M115.57,65.6c0.44-0.34,1.09-0.46,2.11-0.27c2.75,0.53,7.57,2.19,8.28,5.38c0.63,2.8-0.24,6.61-0.47,9.44
		c-0.59,7.17-1.57,14.31-2.68,21.42c-0.85,5.45-1.78,10.88-2.67,16.33c-0.43,2.64-0.85,5.29-1.25,7.93
		c-0.35,2.3-1.42,5.68-0.89,7.87c3.27-0.15,6.62-0.94,9.86-1.43c4.26-0.64,7.68-0.97,10.25,3.24c1.35,2.21-0.83,3.78-2.55,5.1
		c-3.1,2.38-6.94,3.62-10.64,4.72c-10.37,3.07-9.76,2.12-10.9,11.04c-0.44,3.44-1.13,6.87-2.02,10.22
		c-1.36,5.11-4.38,7.35-8.18,6.48c-3.15-0.72-5.8-6.67-4.94-10.76c0.47-2.24,0.63-4.54,1.08-7.93c-5.62,2.19-9.93,4.25-14.46,5.53
		c-3.89,1.1-7.96,2.87-12.13,2.98c-4.09,0.11-10.4-2.23-6.93-6.97c1.44-1.97,3.45-3.3,5.7-4.21c4.27-1.74,9.09-1.93,13.14-4.24
		c4.1-2.34,8.94-3.38,13.45-4.99c2.72-0.97,3.81-2.53,4.25-5.74c2.1-15.36,4.79-30.64,7.17-45.96c1.15-7.38,1.49-14.84,4.07-22.05
		C114.65,67.44,114.8,66.2,115.57,65.6z"/>
	<path class="st0" d="M70.31,57.65c2.65-2.13,8.29,1.09,9.96,3.2c3.26,4.12,2.51,9.94,3.13,14.82c0.76,5.96,1.51,11.93,2.27,17.89
		c1.51,11.93,3.03,23.85,4.54,35.78c0.26,2.01,0.49,4.14-0.34,5.99c-0.33,0.74-0.85,1.42-1.58,1.79c-0.54,0.27-1.16,0.35-1.77,0.42
		c-2.94,0.35-6.15-0.25-7.81-2.95c-0.84-1.37-1.16-3.02-1.02-4.62c0.11-1.31,0.51-2.61,0.39-3.91c-0.27-2.9-2.67-5.64-3.46-8.49
		c-0.93-3.35-1.21-6.85-1.56-10.3c-0.82-8.22-1.87-16.43-2.6-24.66c-0.48-5.37-1.11-10.73-1.2-16.13c-0.04-2.31-0.79-5.06,0.02-7.29
		C69.52,58.5,69.87,58,70.31,57.65z"/>
</g>
</svg>
