<?xml version="1.0" encoding="utf-8"?>
<!-- Generator: Adobe Illustrator 25.4.1, SVG Export Plug-In . SVG Version: 6.00 Build 0)  -->
<svg version="1.1" id="Layer_1" xmlns="http://www.w3.org/2000/svg" xmlns:xlink="http://www.w3.org/1999/xlink" x="0px" y="0px"
	 viewBox="0 0 197 197" style="enable-background:new 0 0 197 197;" xml:space="preserve">
<style type="text/css">
	.st0{fill:#FFFFFF;}
</style>
<g>
	<path class="st0" d="M87.82,149.93c-0.13-0.55-0.16-1.12-0.06-1.7c0.34-2.06,2.05-3.62,3.83-4.71c3.45-2.12,7.45-3.13,11.21-4.63
		c2.48-1,19.4-9.63,21.17-11.68c3.22-3.72-23.09,4.15-25.49,4.38c-2.2,0.22-4.6,0.57-6.78-0.02c-1.29-0.35-2.65-1.05-3.7-1.87
		c-2.15-1.68-1.56-3.58-1.84-5.96c-0.2-1.69-0.3-3.29-0.32-4.98c-0.02-1.46-2.6-27.41-3.03-36.14c-0.17-3.46-1.08-6.91-0.97-10.34
		c0.12-3.56-1.38-7.26-0.52-10.81c1.14-4.75,6.33-4.74,9.87-2.17c2.48,1.8,2.81,5.28,3.26,8.08c0.59,3.66,1.16,7.33,1.73,11
		c0.29,1.87,0.58,3.74,0.86,5.6c0.19,1.24,0.05,5.18,1.39,5.52c1.01,0.26,2.32,0.03,3.34-0.02c2.69-0.14,5.38-0.44,8.07-0.6
		c0.23-0.01,0.46-0.04,0.69-0.03c2.84,0.09,5.73,1.06,7.94,2.86c0.84,0.68,2.52,2.13,2.63,3.29c0.12,1.29-1.6,2.25-2.56,2.74
		c-4.97,2.59-10.28,3.75-15.92,3.39c-3.31-0.21-4.83,1.38-4.46,4.84c0.43,3.99,0.72,7.99,1.04,11.98c0.09,1.14-0.19,1.68,0.87,1.81
		c0.91,0.12,2.19-0.33,3.11-0.46c1.97-0.29,3.93-0.57,5.9-0.86c7.64-1.1,15.29-2.18,22.91-3.47c1.8-0.3,3.6-0.62,5.4-0.94
		c3.36-0.61,6.98-1.28,10.33-0.27c1.7,0.52,3.21,1.48,4.45,2.75c1.12,1.14,2.75,2.37,1.36,3.94c-1.4,1.58-2.86,3.14-4.48,4.5
		c-2.5,2.11-5.31,3.83-8.26,5.23c-1.32,0.62-2.79,0.94-4.04,1.66c-11.1,6.44-22.16,12.97-33.27,19.42c-2.92,1.7-6.05,3.45-9.43,3.31
		C91.3,154.46,88.44,152.49,87.82,149.93z"/>
</g>
</svg>
